# xmcd
#
# Track frame offsets:
#	150
#	6541
#	14161
#	21917
#	39408
#	46913
#	52506
#	58499
#	65133
#	71165
#	80387
#	99703
#	107166
#	115047
#	123935
#	131297
#	139157
#	144760
#	152523
#	160251
#	169491
#	188950
#	196685
#	207412
#	214022
#
# Disc length: 2970 seconds
# Revision: 0
# Processed by: cddbd v1.5.1PL2 Copyright (c) Steve Scherf et al.
# Submitted via: cdrLabel 7.1
#
DISCID=690b9819
DTITLE=Rural Rhythm Guitar Collection: 25 Bluegrass Guitar Favorites
DYEAR=2005
DGENRE=
TTITLE0=I Don't Love Nobody - Don Reno and Bill Harrell
TTITLE1=Billy In The Low Ground - Clarence White
TTITLE2=Wheel Hoss - Mac Martin and The Dixie Travelers
TTITLE3=Lonesome Road Blues - Sandy Rothman and Steve Pottier
TTITLE4=Wildwood Flower - Earl Taylor and Jim McCall
TTITLE5=Down Yonder - The Ritchey Brothers
TTITLE6=Worried Man Blues - James Wall
TTITLE7=Nine Pound Hammer - Clarence White
TTITLE8=Double Eagle - Lee Moore
TTITLE9=False Hearted Love - Earl Taylor and Jim McCall
TTITLE10=Flop-Eared Mule - Sandy Rothman and Steve Pottier
TTITLE11=Brown's Ferry Blues - James Wall
TTITLE12=This Train - Bob Ensign and The Stump Jumpers
TTITLE13=Cannonball Blues - Clarence 'Hound Dog' Jackson and James Wal
TTITLE14=Old Joe Clark - Clarence White
TTITLE15=Deep Elm Blues - James Wall
TTITLE16=Keep On The Sunny Side - Lee Moore
TTITLE17=Life's Other Side - Bob Ensign and The Stump Jumpers
TTITLE18=Buckin' Mule - Clarence White
TTITLE19=East Virginia Blues - James Wall
TTITLE20=Weeping Willow - Sandy Rothman and Steve Pottier
TTITLE21=Silver Dagger - Bob Ensign and The Stump Jumpers
TTITLE22=I Saw Your Face In The Moon - Reno and Smiley Featuring Don R
TTITLE23=Tragic Romance - James Wall
TTITLE24=Bury Me Beneath The Willow - Clarence White
EXTD=
EXTT0=
EXTT1=
EXTT2=
EXTT3=
EXTT4=
EXTT5=
EXTT6=
EXTT7=
EXTT8=
EXTT9=
EXTT10=
EXTT11=
EXTT12=
EXTT13=
EXTT14=
EXTT15=
EXTT16=
EXTT17=
EXTT18=
EXTT19=
EXTT20=
EXTT21=
EXTT22=
EXTT23=
EXTT24=
PLAYORDER=
